<svg id="Layer_1" data-name="Layer 1" xmlns="http://www.w3.org/2000/svg" width="88.5" height="256.2" viewBox="0 0 88.5 256.2"><title>feather-left</title><path d="M31.8,200.2v55.5a40.7,40.7,0,0,1-5.3.4H10.2a44.5,44.5,0,0,1-5.4-.4,4.9,4.9,0,0,1-3-1.6c-1.2-1-1.8-1.9-1.8-2.6V85.3A133.6,133.6,0,0,1,1.1,70.1,128,128,0,0,1,4.5,52.2a125.7,125.7,0,0,1,6.1-17.3,45.1,45.1,0,0,1,8.8-13.5l6.4-6.1c2.6-2.4,5.2-4.8,7.9-7l6.9-5.8A15.9,15.9,0,0,1,44,0h9.7l5.7,13.2c1.6,3.7,3.3,7.5,4.9,11.4l3.9,9.5c.6,1.6,1.5,3.7,2.6,6.5S73,46,74,48.7L76.7,56c.8,2.1,1.3,3.3,1.5,3.7q.6,3.4,2.1,11.4c1.1,5.2,2.1,10.8,3.1,16.7s1.9,11.5,2.9,16.7,1.4,8.7,1.6,10.7.4,6.1.5,10.3.1,8.4.1,12.5,0,7.7-.1,10.7-.3,4.6-.5,4.8Z" fill="#e1d000"/></svg>