<svg id="Layer_1" data-name="Layer 1" xmlns="http://www.w3.org/2000/svg" width="88.5" height="256.2" viewBox="0 0 88.5 256.2"><title>feather-right</title><path d="M.6,153.5c-.2-.2-.3-1.8-.4-4.8S0,142.2,0,138s0-8.3.2-12.5.2-7.7.4-10.3.8-5.5,1.7-10.7S4.1,93.7,5.2,87.8s2-11.5,3-16.7S9.9,62,10.3,59.7c.2-.4.7-1.6,1.5-3.7l2.8-7.3c1-2.7,2-5.4,3.1-8.1s2-4.9,2.6-6.5,2.3-5.7,4-9.5,3.2-7.7,4.8-11.4S32.8,4.6,34.9,0h9.7a17.1,17.1,0,0,1,3.3,2.5l7,5.8c2.6,2.2,5.2,4.6,7.9,7l6.3,6.1a43.3,43.3,0,0,1,8.8,13.5A113.8,113.8,0,0,1,84,52.2a128.5,128.5,0,0,1,3.5,17.9,130.9,130.9,0,0,1,1,15.2V251.5c0,.7-.6,1.6-1.8,2.6a4.9,4.9,0,0,1-3,1.6,42.4,42.4,0,0,1-5.3.4H62a42.4,42.4,0,0,1-5.3-.4V200.2Z" fill="#e1d000"/></svg>