<svg id="Layer_1" data-name="Layer 1" xmlns="http://www.w3.org/2000/svg" width="256" height="256" viewBox="0 0 256 256"><title>Artboard 1</title><path d="M172.1,245.9H83.2a69.4,69.4,0,0,1-69.3-69.3V94.8A69.4,69.4,0,0,1,83.2,25.5h88.9a69.4,69.4,0,0,1,69.3,69.3v81.8A69.4,69.4,0,0,1,172.1,245.9ZM83.2,36.5A58.3,58.3,0,0,0,25,94.8v81.8a58.3,58.3,0,0,0,58.2,58.3h88.9a58.4,58.4,0,0,0,58.3-58.3V94.8a58.4,58.4,0,0,0-58.3-58.3Z"/><path d="M208.7,165.7a12.9,12.9,0,0,0-2.8-3.3,128.4,128.4,0,0,0-11.5-8.3c-8-4.6-13.9-11.1-18.7-18.8-1.8-2.8-3.6-5.7-5.3-8.6a15.9,15.9,0,0,0-7.8-7.1c-3.2-1.5-6.4-3.2-9.5-4.8l-1.6-1c-7.3-4.6-8.8-7.9-7.1-16.4,2.1-11.2,5.9-21.8,9.5-32.6L158.5,51a15.7,15.7,0,0,0,.4-2.3l-.5-.4a17.6,17.6,0,0,0-3.7,2.3c-3.5,3.3-7.2,6.4-10.2,10.1l-.7.7c.6-2.7,1.3-7.4,1.5-7.7.6-2.1,1.3-4.1,1.7-6.1s.3-2.6-.4-3.2-2.3,0-3.1,1a89.3,89.3,0,0,0-7.8,8.5c-8.2,10.9-13.3,23.3-17.3,36.3-.9,2.8-2.6,9.5-3.6,12.9-17.6,8.5-33.9,18.8-47.8,32.7a97.6,97.6,0,0,0-19.4,27c-2.3,4.7-1.5,14.4.3,18.9a65.2,65.2,0,0,0,17.2,24.7,87.2,87.2,0,0,0,50.7,21.9c6.6.6,28.4-.5,33.1-1.4.7,8.8,1.1,17.7,1.3,23.3h13.2c-.6-12.9-3.1-44.2-15-59-.9-1-11.2-15.9-14-23.2a3.7,3.7,0,0,0-1.1-1.8v-3.4h0l4.5-6.3.3.2c3,6.6,8.9,7.2,14.8,6.2s12.5-.5,18.5,2l10.2,3.9c4.3,1.7,8.5,3.6,12.8,5.2a5,5,0,0,0,3.6.1c3.5-1.7,6.9-3.7,10.3-5.7A1.8,1.8,0,0,0,208.7,165.7Z"/><path d="M130.6,183.8c-22.3-11.7-45.9-18.4-71.2-18.7h-1a69.8,69.8,0,0,0,3.3,13.5c5,12.5,13.9,21.3,25.3,27.9,13.7,7.8,28.8,11.2,44.4,12.8,2.4.3,12,1.1,16.8.6a100.8,100.8,0,0,0-2.6-15.6C141.6,189.6,139.3,188.3,130.6,183.8Zm-6,26.7c-11-1.6-21.8-4.5-31.7-9.8s-19.2-13.4-23.8-24.8l-1.2-3.3,2.8.2c7.8,1.4,15.7,2.5,23.4,4.4,13.8,3.4,26.6,8.9,37.9,17.7,5.5,4.3,6.8,10.5,7.7,17.4C134.3,211.7,129.5,211.2,124.6,210.5Z" fill="#e1d000"/><path d="M168.6,134.8c0-.5.2-1.1,0-1.5a14.1,14.1,0,0,0-6.4-7,22.8,22.8,0,0,0-3.6-1.5,26.6,26.6,0,0,1-10.3-5.3l-9-7.3a3.7,3.7,0,0,0-1.5-.4c.2.5.2,1.2.6,1.5,4.2,3.3,8.3,6.7,12.6,9.8a21.8,21.8,0,0,0,6.4,2.9c4.4,1.3,7.9,3.6,9.9,7.9.1.4.5.7.8,1Z" fill="#e1d000"/><path d="M150.4,256h13.2c0-.1,0-2.3-.2-5.8H150.2C150.3,253.6,150.4,255.8,150.4,256Z" fill="#e1d000"/><path d="M133.6,166.5l-.3-3.7c-1.5-.9-1.3-1.9-.7-3,1.5-3,2.9-6.1,4.5-9s1.8-8-.5-11.8c-.4-.8-.9-1.5-1.3-2.2s-2.4-4-3-6.2c-2.3-7.4-4.4-14.9-6.3-22.4a39.3,39.3,0,0,1-1.2-9.5l-4.9,2.1c.6,3.9,1.1,7.6,1.7,11.2,1.9,9.6,4.3,18.9,9.9,27.2,2,3.1,3,6.4.8,10.2a40.6,40.6,0,0,0-3.4,8.6c-1.1,3.6,0,5.9,3.4,7.6a3.8,3.8,0,0,1,1.3.9Z" fill="#e1d000"/><path d="M162.5,137l3.6,1.6c.8.4,1.5,1.1,2.3,1.5s1-.1,1.3-.4.1-.9-.1-1.2l-1.3-1a22.1,22.1,0,0,1-2.9-3.3c-2-3.2-5.1-4.6-8.4-5.7a15.9,15.9,0,0,1-4.8-2.1c-3.7-2.5-7.3-5.2-10.9-7.8l-.6-.5c-.6-.5-1.4-1.2-2.1-.2s.3,1.5.8,1.9l13.2,9.6a4.6,4.6,0,0,1,1.8,2.3C155.9,135.6,158.2,137.4,162.5,137Z" fill="#e1d000"/><path d="M174.8,26.6H80.5A13.3,13.3,0,0,1,80.5.1h94.3a13.3,13.3,0,1,1,0,26.5Z"/></svg>